<?xml version="1.0" standalone="no"?>
<!DOCTYPE svg PUBLIC "-//W3C//DTD SVG 20010904//EN"
 "http://www.w3.org/TR/2001/REC-SVG-20010904/DTD/svg10.dtd">
<svg version="1.0" xmlns="http://www.w3.org/2000/svg"
 width="260.000000pt" height="260.000000pt" viewBox="0 0 260.000000 260.000000"
 preserveAspectRatio="xMidYMid meet">
<metadata>
Created by potrace 1.14, written by Peter Selinger 2001-2017
</metadata>
<g transform="translate(0.000000,260.000000) scale(0.100000,-0.100000)"
fill="#000000" stroke="none">
<path d="M1160 1949 c-41 -10 -84 -19 -94 -19 -17 0 -92 -31 -152 -64 -86 -45
-198 -147 -252 -228 -29 -45 -32 -49 -53 -92 -11 -23 -28 -33 -88 -53 -41 -13
-99 -28 -130 -32 -53 -8 -136 -37 -191 -67 -80 -43 -97 -55 -114 -87 -12 -23
-16 -45 -12 -62 9 -35 71 -102 103 -110 15 -3 37 -15 50 -25 13 -10 43 -21 66
-25 23 -4 60 -15 82 -25 22 -10 70 -22 105 -25 36 -4 99 -15 140 -25 210 -52
1150 -52 1360 0 41 10 104 21 140 25 35 3 83 15 105 25 22 10 59 21 82 25 23
4 53 15 66 25 13 10 35 22 50 25 32 8 94 75 103 110 4 17 0 39 -12 62 -17 32
-34 44 -114 87 -55 30 -138 59 -192 67 -31 5 -89 19 -130 33 -58 19 -76 30
-87 53 -22 43 -24 47 -55 94 -53 80 -161 177 -250 226 -59 32 -133 63 -151 63
-11 0 -56 9 -100 20 -99 24 -177 24 -275 -1z m-164 -380 c37 -35 50 -85 39
-148 -5 -31 -16 -47 -52 -75 -80 -62 -145 -48 -214 47 -38 52 -37 89 4 149 37
55 69 69 141 63 39 -3 57 -12 82 -36z m413 -6 c34 -35 36 -41 36 -101 0 -64 0
-64 -48 -108 -42 -38 -55 -44 -92 -44 -34 0 -53 7 -87 33 -55 42 -70 71 -65
128 3 34 13 57 37 87 35 44 58 52 134 46 40 -3 54 -10 85 -41z m351 37 c45
-13 100 -90 100 -140 0 -68 -84 -150 -155 -150 -61 0 -130 55 -139 111 -10 62
3 110 38 145 42 43 89 53 156 34z"/>
<path d="M744 925 c-18 -14 -17 -16 26 -54 25 -22 56 -42 69 -46 12 -3 35 -15
50 -25 14 -11 50 -24 78 -30 29 -5 68 -17 85 -27 29 -16 61 -18 243 -18 190 0
216 2 270 22 33 11 79 26 101 32 23 6 47 18 54 26 7 8 20 15 30 15 10 0 37 16
60 35 23 19 46 35 51 35 17 0 9 29 -12 41 -16 8 -72 6 -238 -11 -240 -25 -434
-24 -676 5 -161 18 -167 18 -191 0z"/>
</g>
</svg>
